<?xml version="1.0" encoding="UTF-8"?>
<svg version="1.1" xmlns="http://www.w3.org/2000/svg" width="500" height="500">
<path d="M0 0 C34.15807668 -0.09166512 68.31612515 -0.16209426 102.47429837 -0.20426132 C106.51199989 -0.20926382 110.54970118 -0.21444114 114.58740234 -0.21972656 C115.79309281 -0.22130043 115.79309281 -0.22130043 117.02314065 -0.22290608 C130.01790522 -0.24028533 143.0125986 -0.27180926 156.00732102 -0.30861118 C169.35283063 -0.3460898 182.6983031 -0.36825044 196.04386318 -0.37635398 C204.27097602 -0.38182745 212.49788763 -0.3990803 220.7249385 -0.43166587 C226.3755892 -0.45289933 232.0261367 -0.4591802 237.67682435 -0.45400551 C240.93129303 -0.45145734 244.18534033 -0.45743641 247.43976212 -0.4768219 C272.35933622 -0.61792376 272.35933622 -0.61792376 284 4 C284.82653139 4.30121639 285.65306278 4.60243279 286.50464058 4.91277695 C291.44589221 6.77301167 295.71976079 9.67226522 300.0625 12.625 C300.94047241 13.21994263 300.94047241 13.21994263 301.83618164 13.8269043 C303.26406611 14.83002349 304.63777757 15.90937988 306 17 C306 17.66 306 18.32 306 19 C306.66 19 307.32 19 308 19 C308 19.66 308 20.32 308 21 C308.66 21 309.32 21 310 21 C310 21.66 310 22.32 310 23 C310.66 23 311.32 23 312 23 C313.7265625 25.1171875 313.7265625 25.1171875 315.625 27.875 C316.57246094 29.23238281 316.57246094 29.23238281 317.5390625 30.6171875 C319 33 319 33 319 35 C319.66 35 320.32 35 321 35 C321 36.32 321 37.64 321 39 C321.66 39 322.32 39 323 39 C323 39.66 323 40.32 323 41 C323.66 41 324.32 41 325 41 C325 42.32 325 43.64 325 45 C325.66 45 326.32 45 327 45 C329 48 329 48 329 56 C307.88 56 286.76 56 265 56 C265 67.88 265 79.76 265 92 C267.6093042 91.97381592 270.2186084 91.94763184 272.90698242 91.9206543 C281.528256 91.83780441 290.14954717 91.78257595 298.7711134 91.74093914 C303.99842067 91.71484585 309.22532006 91.67945232 314.45239258 91.62280273 C319.49689555 91.56847395 324.54100623 91.53857745 329.58577919 91.52561378 C331.51035043 91.51637549 333.43490021 91.49833505 335.35930443 91.47134972 C338.05535643 91.43504754 340.74978782 91.43005508 343.44604492 91.43237305 C344.24158279 91.41439667 345.03712067 91.39642029 345.85676575 91.37789917 C349.90328837 91.41554009 351.73851342 91.78773686 354.92134094 94.37141418 C360 100.79367526 360 100.79367526 360 105 C360.66 105 361.32 105 362 105 C362 106.32 362 107.64 362 109 C362.66 109 363.32 109 364 109 C364 110.32 364 111.64 364 113 C364.66 113 365.32 113 366 113 C366 129.5 366 146 366 163 C363.27345639 163.90884787 361.50731271 164.15945963 358.68725586 164.24047852 C357.81882553 164.26622452 356.9503952 164.29197052 356.0556488 164.3184967 C352.0695612 164.40326061 348.08364575 164.46858233 344.09692383 164.51489258 C342.00286481 164.54644667 339.90898213 164.59411082 337.81567383 164.65844727 C318.18864271 165.25292357 318.18864271 165.25292357 311.56640625 160.08984375 C309.38110352 157.92553711 309.38110352 157.92553711 308 156 C308 155.34 308 154.68 308 154 C307.34 154 306.68 154 306 154 C306 153.34 306 152.68 306 152 C301.3394508 151.89475931 296.68464231 151.85688367 292.02294922 151.87792969 C290.44209652 151.87599829 288.86115436 151.85654424 287.28076172 151.81835938 C277.48322275 151.4767203 277.48322275 151.4767203 268.73730469 155.26660156 C266.2935515 157.73497695 264.14224945 160.27161306 262 163 C259.03610566 164.48194717 256.36469441 164.14656953 253.05575562 164.1673584 C252.33281897 164.17315178 251.60988233 164.17894517 250.86503851 164.18491411 C248.43005174 164.20302588 245.99508824 164.21386059 243.56005859 164.22460938 C241.81906928 164.23578135 240.07808213 164.24729457 238.33709717 164.25912476 C232.60757452 164.29572695 226.87802965 164.3209094 221.1484375 164.34375 C219.6866673 164.3496688 219.6866673 164.3496688 218.19536638 164.35570717 C209.00535636 164.39213117 199.81533871 164.42357846 190.62528038 164.44481659 C178.86804483 164.47238774 167.11141284 164.52313992 155.35442865 164.60529089 C147.08936953 164.66108696 138.82447413 164.69005343 130.55923331 164.6992898 C125.6223793 164.70554724 120.68623251 164.72366792 115.7495842 164.77067566 C111.10199256 164.81438139 106.45549387 164.82481867 101.80773163 164.81004715 C100.10495792 164.81037551 98.40213689 164.82262951 96.69955063 164.84789658 C82.24263698 165.05105996 82.24263698 165.05105996 77.17398071 160.69934082 C75.41522217 158.79371452 75.41522217 158.79371452 74 157 C71.11787328 153.6014094 71.11787328 153.6014094 66.91293335 152.49447632 C65.70207062 152.49162628 64.49120789 152.48877625 63.24365234 152.48583984 C62.57328445 152.47871475 61.90291656 152.47158966 61.2122345 152.46424866 C59.00316743 152.44499626 56.79506036 152.45323959 54.5859375 152.4609375 C53.0494344 152.45103175 51.51294319 152.43909096 49.97647095 152.42520142 C45.93630922 152.39284409 41.89641869 152.38244699 37.85614014 152.37835693 C31.38214406 152.36959774 24.90837051 152.33420871 18.43455887 152.2861824 C16.17100032 152.27356329 13.90772124 152.27435786 11.64413452 152.27645874 C10.26194032 152.26988088 8.87974807 152.26287511 7.49755859 152.25537109 C5.68365128 152.25348282 5.68365128 152.25348282 3.83309937 152.2515564 C1 152 1 152 -1 150 C-1.24888897 147.44812012 -1.24888897 147.44812012 -1.24723816 144.15429688 C-1.25143265 142.90914307 -1.25562714 141.66398926 -1.25994873 140.38110352 C-1.25446483 138.99365157 -1.24878184 137.6062004 -1.24291992 136.21875 C-1.24399238 134.76358963 -1.24593051 133.30842967 -1.24867249 131.85327148 C-1.25352985 127.89466222 -1.24585407 123.93616526 -1.23571944 119.97756958 C-1.2269532 115.84116742 -1.22869611 111.70476893 -1.2290802 107.56835938 C-1.22814289 100.62107457 -1.21945004 93.67383337 -1.20581055 86.7265625 C-1.19008433 78.68655041 -1.18481241 70.64658611 -1.1855461 62.60655975 C-1.18615584 54.88263788 -1.18105536 47.15873163 -1.17275429 39.43481445 C-1.16921749 36.14298379 -1.16739047 32.85115865 -1.16686058 29.55932617 C-1.16585818 25.68521365 -1.15977001 21.81114146 -1.14969444 17.93704224 C-1.14676636 16.51238248 -1.1455447 15.08771807 -1.14612198 13.66305542 C-1.1466105 11.72393364 -1.14035474 9.78481359 -1.13371277 7.84570312 C-1.13203692 6.75874146 -1.13036108 5.67177979 -1.12863445 4.55187988 C-1 2 -1 2 0 0 Z " fill="#FEFEFE" transform="translate(76,146)"/>
<path d="M0 0 C2.37531394 -0.0543965 4.74935883 -0.09385864 7.125 -0.125 C7.79015625 -0.14175781 8.4553125 -0.15851563 9.140625 -0.17578125 C13.49516056 -0.21847278 16.95600114 0.40003783 21 2 C21 2.66 21 3.32 21 4 C21.556875 4.103125 22.11375 4.20625 22.6875 4.3125 C25.52242204 5.15531466 27.60950977 6.25558821 30 8 C30.8125 10.1875 30.8125 10.1875 31 12 C31.66 12 32.32 12 33 12 C33.64910154 13.58199631 34.29414694 15.16565724 34.9375 16.75 C35.29714844 17.63171875 35.65679687 18.5134375 36.02734375 19.421875 C39.2652394 28.00424902 38.30336541 35.58630008 35 44 C32.61047165 48.30115104 30.10651981 51.26232013 26 54 C25.01 54 24.02 54 23 54 C23 54.66 23 55.32 23 56 C21.68 56 20.36 56 19 56 C19 56.66 19 57.32 19 58 C15.47945086 58.11709643 11.95940888 58.1875469 8.4375 58.25 C7.44685547 58.28351563 6.45621094 58.31703125 5.43554688 58.3515625 C-0.97714186 58.43678096 -4.7473315 57.74243422 -10 54 C-10 53.34 -10 52.68 -10 52 C-10.804375 51.7525 -11.60875 51.505 -12.4375 51.25 C-15 50 -15 50 -15.8125 47.875 C-15.9053125 46.946875 -15.9053125 46.946875 -16 46 C-16.66 46 -17.32 46 -18 46 C-22.1428035 37.97331823 -22.46321804 30.92981438 -22 22 C-21.34 22 -20.68 22 -20 22 C-20 20.02 -20 18.04 -20 16 C-19.34 16 -18.68 16 -18 16 C-17.34 14.02 -16.68 12.04 -16 10 C-15.34 10 -14.68 10 -14 10 C-14 9.34 -14 8.68 -14 8 C-13.34 8 -12.68 8 -12 8 C-12 7.34 -12 6.68 -12 6 C-10.02 5.34 -8.04 4.68 -6 4 C-6 3.34 -6 2.68 -6 2 C-4.02 2 -2.04 2 0 2 C0 1.34 0 0.68 0 0 Z " fill="#FDFEFE" transform="translate(357,304)"/>
<path d="M0 0 C0 0.66 0 1.32 0 2 C0.928125 2.2165625 0.928125 2.2165625 1.875 2.4375 C4 3 4 3 6 4 C6 4.66 6 5.32 6 6 C6.66 6 7.32 6 8 6 C8 6.66 8 7.32 8 8 C8.66 8 9.32 8 10 8 C10 8.66 10 9.32 10 10 C10.66 10 11.32 10 12 10 C13.76462683 13.08809695 14 14.23312136 14 18 C14.66 18 15.32 18 16 18 C16.05425013 20.87525669 16.09379277 23.74947646 16.125 26.625 C16.14175781 27.43324219 16.15851563 28.24148438 16.17578125 29.07421875 C16.21420986 33.80093815 15.82737094 37.55387702 14 42 C13.34 42 12.68 42 12 42 C11.773125 42.9075 11.54625 43.815 11.3125 44.75 C9.80121335 48.4922336 8.37617162 49.85901312 5 52 C4.01 52 3.02 52 2 52 C2 52.66 2 53.32 2 54 C-5.22406913 58.14942215 -15.96057394 56.96289704 -24 56 C-27.95275643 54.62915043 -31.11855962 53.07247511 -34 50 C-34 49.34 -34 48.68 -34 48 C-34.66 48 -35.32 48 -36 48 C-38 45 -38 45 -38 42 C-38.66 42 -39.32 42 -40 42 C-42.40369711 37.27913888 -42.36694468 32.86304206 -42.375 27.6875 C-42.39949219 26.87087891 -42.42398438 26.05425781 -42.44921875 25.21289062 C-42.47842727 19.10344218 -41.07195444 15.27574784 -38 10 C-37.34 10 -36.68 10 -36 10 C-36 9.34 -36 8.68 -36 8 C-35.34 8 -34.68 8 -34 8 C-34 7.34 -34 6.68 -34 6 C-33.34 6 -32.68 6 -32 6 C-32 5.34 -32 4.68 -32 4 C-31.34 4 -30.68 4 -30 4 C-30 3.34 -30 2.68 -30 2 C-20.8828163 -3.53455054 -9.87304213 -3.79149084 0 0 Z " fill="#FEFEFE" transform="translate(139,306)"/>
<path d="M0 0 C-0.33 0.99 -0.66 1.98 -1 3 C-1.66 3 -2.32 3 -3 3 C-3 3.66 -3 4.32 -3 5 C-5.97 4.505 -5.97 4.505 -9 4 C-6.31059578 0.90718514 -4.07621501 0 0 0 Z " fill="#EFF9FC" transform="translate(127,304)"/>
<path d="M0 0 C2.97 0 5.94 0 9 0 C9.33 0.66 9.66 1.32 10 2 C3.375 3.125 3.375 3.125 0 2 C0 1.34 0 0.68 0 0 Z " fill="#F2F9FE" transform="translate(392,199)"/>
</svg>
